<svg version="1.1" id="Layer_1" xmlns="http://www.w3.org/2000/svg" xmlns:xlink="http://www.w3.org/1999/xlink" x="0px" y="0px"
	 width="100%" viewBox="0 0 1024 1024" enable-background="new 0 0 1024 1024" xml:space="preserve">
<path fill="#000000" opacity="1.000000" stroke="none" 
	d="
M173.000092,336.673401 
	C239.491180,336.682281 305.482239,336.691589 371.473328,336.699951 
	C378.330841,336.700806 378.337189,336.698212 378.339813,343.486420 
	C378.345245,357.651154 378.275024,371.816437 378.396942,385.980133 
	C378.424225,389.151215 377.584320,391.675018 375.659180,394.226593 
	C345.157745,434.653534 314.743408,475.146210 284.308044,515.622986 
	C264.885651,541.453247 245.462311,567.282776 226.035187,593.109436 
	C225.046432,594.423950 223.831345,595.612793 223.677826,598.031189 
	C229.204941,599.997742 235.062775,599.402405 240.665833,599.430603 
	C285.146759,599.654602 329.629120,599.597595 374.111023,599.642090 
	C375.261749,599.643250 376.412323,599.818542 377.397888,599.899109 
	C378.664185,601.135620 378.337006,602.534912 378.338348,603.828369 
	C378.356689,621.492615 378.220367,639.158569 378.443726,656.820007 
	C378.499786,661.253296 377.069000,662.518677 372.726074,662.485596 
	C349.730591,662.310547 326.726044,662.047791 303.737579,662.489258 
	C250.085800,663.519470 196.431213,663.192932 142.777405,663.354492 
	C135.635101,663.376038 135.631256,663.354736 135.630310,656.310791 
	C135.628235,640.812866 135.695358,625.314514 135.577042,609.817505 
	C135.552765,606.639465 136.409058,604.085144 138.315384,601.554443 
	C175.886246,551.679443 213.394302,501.757202 250.923553,451.850830 
	C262.429474,436.550323 273.976624,421.280731 285.450348,405.956146 
	C286.409668,404.674866 287.771179,403.513214 287.801575,401.452759 
	C285.417999,399.410126 282.462799,400.251221 279.774933,400.248596 
	C234.781113,400.204529 189.787247,400.238800 144.793381,400.252869 
	C137.687820,400.255096 137.667984,400.248871 137.662704,393.041412 
	C137.650253,376.043701 137.762650,359.044922 137.583435,342.049103 
	C137.540039,337.933655 138.859482,336.501068 143.007095,336.600006 
	C152.833099,336.834351 162.668488,336.674194 173.000092,336.673401 
z"/>
<path fill="#000000" opacity="1.000000" stroke="none" 
	d="
M667.069946,581.000000 
	C667.060974,552.674377 667.158081,524.847961 666.946838,497.023895 
	C666.908813,492.018066 668.341858,490.267853 673.461731,490.539673 
	C681.270996,490.954285 689.124023,490.829559 696.947266,490.581940 
	C701.019714,490.453033 702.475403,491.746826 702.421753,495.946014 
	C702.221375,511.605835 702.343872,527.269775 702.345154,542.932190 
	C702.345276,544.723816 702.345215,546.515381 702.345215,549.193054 
	C704.500366,547.323364 706.009521,546.122437 707.396912,544.794312 
	C727.621704,525.433777 765.065735,528.723938 782.847534,554.450195 
	C791.656433,567.194702 795.008972,581.510803 795.409973,596.825928 
	C795.871399,614.448730 792.364258,630.810486 782.052734,645.447754 
	C764.280396,670.675781 730.221558,670.762329 712.951050,659.345032 
	C709.199402,656.864929 706.389404,653.367920 702.309998,649.750244 
	C702.309998,653.550842 702.251160,656.485046 702.327087,659.415771 
	C702.397644,662.136047 701.212036,663.340393 698.457336,663.323242 
	C689.293640,663.266113 680.128601,663.236877 670.965698,663.339233 
	C666.924988,663.384277 667.026611,660.826538 667.031189,657.979004 
	C667.072205,632.486023 667.064209,606.993042 667.069946,581.000000 
M715.827576,631.693848 
	C730.777466,640.769897 747.400024,636.557922 755.026123,620.843933 
	C762.096802,606.274475 761.961731,591.062927 754.349304,576.666565 
	C749.354065,567.219727 741.030090,561.817200 729.870117,562.411316 
	C719.334717,562.972229 711.837646,568.467957 706.841492,577.607666 
	C701.810730,586.810669 701.615723,596.839966 702.590149,606.796753 
	C703.533203,616.432922 706.838074,625.280762 715.827576,631.693848 
z"/>
<path fill="#000000" opacity="1.000000" stroke="none" 
	d="
M571.665649,589.545898 
	C581.018433,588.542175 589.920715,587.588074 598.823914,586.641968 
	C599.319458,586.589233 599.850769,586.702087 600.316650,586.568237 
	C604.512756,585.362427 610.095154,585.654175 611.200195,580.206787 
	C612.262878,574.967773 610.298523,569.989136 606.227173,566.264038 
	C596.048584,556.951050 570.388550,557.921448 565.739319,573.697693 
	C564.990601,576.238342 563.195129,576.380920 561.098145,576.374756 
	C553.602234,576.352722 546.106079,576.400757 538.610291,576.367004 
	C532.553406,576.339722 531.699585,575.286438 533.093384,569.164124 
	C536.117981,555.878540 543.797913,546.104980 555.738403,539.640503 
	C563.635681,535.365051 572.270691,533.405762 581.067688,532.836182 
	C592.858765,532.072876 604.628662,532.483643 616.195862,535.688049 
	C634.385254,540.726929 645.337036,554.815857 645.347473,573.771606 
	C645.359558,595.759888 645.464966,617.749023 645.287292,639.735901 
	C645.225281,647.410400 646.000671,654.921143 648.142822,662.535767 
	C643.327332,663.952881 638.838379,663.177673 634.425476,663.294495 
	C629.431763,663.426758 624.415649,663.068542 619.439209,663.388977 
	C615.028442,663.673096 612.968201,661.937805 612.585266,657.630981 
	C612.396729,655.509888 611.773804,653.427368 611.326904,651.226013 
	C608.917114,651.310120 607.911499,653.265869 606.503174,654.512939 
	C589.533813,669.539062 562.979919,669.806458 546.768921,659.571655 
	C531.333374,649.826416 528.664368,635.647278 531.214539,619.885620 
	C533.824890,603.752258 544.943054,593.682739 561.328308,590.757690 
	C564.589172,590.175598 567.917908,589.974121 571.665649,589.545898 
M578.901550,611.384033 
	C576.474976,611.976562 574.151428,612.792969 571.928528,613.984802 
	C566.257141,617.025757 564.834595,622.023376 565.393066,627.909485 
	C565.916504,633.426880 568.944214,637.264587 574.097290,639.023804 
	C589.563049,644.303711 612.373352,635.238281 611.713806,611.645142 
	C611.609070,607.901184 610.008423,606.962646 606.803955,607.416870 
	C597.777100,608.696350 588.754822,610.007751 578.901550,611.384033 
z"/>
<path fill="#000000" opacity="1.000000" stroke="none" 
	d="
M913.349121,558.933167 
	C915.142639,563.965515 917.020386,568.590698 915.995728,574.307434 
	C906.479065,574.307434 897.029724,574.305908 887.580383,574.308594 
	C885.445984,574.309204 884.907776,572.721497 884.296570,571.122803 
	C878.984741,557.229675 858.248474,555.815918 848.892273,561.599243 
	C841.562744,566.129761 841.486084,574.808289 848.653198,579.625366 
	C855.819946,584.442139 864.319519,584.859985 872.401611,586.563721 
	C880.688721,588.310730 889.002930,589.789246 897.047302,592.627991 
	C924.039246,602.153076 924.331238,635.424255 909.258789,650.757812 
	C899.885010,660.293884 888.039856,664.433411 875.249390,665.840271 
	C858.093933,667.727234 841.268005,666.526611 826.157166,656.868591 
	C816.286255,650.559692 809.920715,641.751282 807.860229,630.049927 
	C806.955505,624.912476 807.821228,623.757080 813.002441,623.718262 
	C820.335022,623.663330 827.668457,623.681030 835.001282,623.719238 
	C836.777771,623.728455 838.781128,623.398926 839.504883,625.818542 
	C842.723450,636.579407 851.540771,639.246460 861.142151,640.512573 
	C866.657288,641.239807 872.130981,640.412415 877.349426,638.500000 
	C882.976257,636.437927 885.633606,632.590332 885.688416,627.326538 
	C885.747437,621.659424 882.181274,618.901123 877.532043,617.251831 
	C868.566223,614.071228 859.037598,613.400574 849.805237,611.385315 
	C842.653076,609.824219 835.568604,608.168640 828.836426,605.152283 
	C805.750916,594.809143 804.931091,565.000183 817.687317,549.879517 
	C826.999573,538.841309 839.387024,534.053528 853.194214,532.861023 
	C864.304138,531.901489 875.504211,532.281189 886.303650,535.760620 
	C898.387451,539.653809 908.057251,546.470947 913.349121,558.933167 
z"/>
<path fill="#000000" opacity="1.000000" stroke="none" 
	d="
M502.989746,631.638672 
	C516.293701,631.647827 516.294739,631.647827 516.285034,644.623047 
	C516.281799,648.955688 516.040588,653.303772 516.329590,657.616577 
	C516.620605,661.958618 515.065247,663.456787 510.645752,663.409302 
	C492.650787,663.215881 474.652435,663.336731 456.655334,663.339355 
	C439.991364,663.341797 423.326172,663.232849 406.664215,663.415710 
	C402.334930,663.463257 400.540405,662.466675 400.554932,657.630676 
	C400.716583,603.806458 400.706360,549.981506 400.564484,496.157166 
	C400.552582,491.644623 402.072754,490.424408 406.336639,490.571014 
	C414.325897,490.845703 422.344696,490.927765 430.325165,490.545654 
	C435.325012,490.306274 436.422302,492.235626 436.406342,496.875854 
	C436.260193,539.368530 436.322998,581.861877 436.331207,624.355042 
	C436.332581,631.596619 436.346588,631.623535 443.501038,631.629456 
	C463.164520,631.645813 482.828003,631.637512 502.989746,631.638672 
z"/>
<path fill="#000000" opacity="1.000000" stroke="none" 
	d="
M474.240051,448.249146 
	C454.558716,464.951477 421.900574,463.819366 405.716919,446.150757 
	C400.837036,440.823120 398.264343,434.398346 396.816895,427.457397 
	C396.127045,424.149292 397.335815,422.407257 400.998871,422.609985 
	C404.154694,422.784668 407.341461,422.822754 410.491150,422.596252 
	C416.506683,422.163666 420.736023,422.821777 423.983948,429.667755 
	C428.741425,439.695648 447.561462,440.833527 455.126038,432.639374 
	C460.991760,426.285461 459.512726,416.336731 451.913544,411.472870 
	C446.365173,407.921661 440.174591,406.867523 433.730164,407.398651 
	C429.311523,407.762817 427.186951,406.373047 427.651703,401.583282 
	C428.052002,397.458221 426.651794,392.605164 428.389923,389.309143 
	C430.372894,385.548737 435.675659,388.175568 439.472839,387.511353 
	C448.356628,385.957428 454.064758,381.524811 454.652771,375.349426 
	C455.630066,365.085815 446.433380,358.151917 435.069916,360.654999 
	C429.873840,361.799500 425.748840,364.591522 424.031708,369.756195 
	C423.030975,372.766083 421.355774,373.481018 418.523224,373.389923 
	C413.862854,373.240021 409.193939,373.370453 404.528656,373.356567 
	C398.637756,373.339020 397.455139,371.982025 399.041779,366.100159 
	C401.362488,357.497162 405.779114,350.250061 413.379639,345.145721 
	C430.720795,333.499786 458.642975,335.263855 472.392212,348.969879 
	C485.792908,362.328522 484.771606,381.083221 469.998688,392.996124 
	C469.254120,393.596527 468.540375,394.235077 467.229797,395.352600 
	C478.223938,401.193176 484.633331,409.940491 485.221283,422.004913 
	C485.716217,432.161621 481.647919,440.806274 474.240051,448.249146 
z"/>
</svg>